<svg width="600" height="25" viewBox="0 0 600 25" fill="none" xmlns="http://www.w3.org/2000/svg">
<rect y="0.5" width="24" height="24" rx="8" fill="#C94654"/>
<path d="M6 13.5L10.0004 17.5L17.9999 7.5" stroke="white" stroke-width="1.5" stroke-linecap="round" stroke-linejoin="round"/>
<path d="M48.1807 18H46.8408L41.3926 9.60547H41.3379C41.3516 9.82878 41.3675 10.084 41.3857 10.3711C41.404 10.6536 41.4176 10.9567 41.4268 11.2803C41.4404 11.5993 41.4473 11.9251 41.4473 12.2578V18H40.3672V8.00586H41.7002L47.1279 16.373H47.1758C47.1667 16.2135 47.1553 15.988 47.1416 15.6963C47.1279 15.4001 47.1143 15.0833 47.1006 14.7461C47.0915 14.4043 47.0869 14.0876 47.0869 13.7959V8.00586H48.1807V18ZM53.6221 10.3711C54.2601 10.3711 54.807 10.5124 55.2627 10.7949C55.7184 11.0775 56.0671 11.474 56.3086 11.9844C56.5501 12.4902 56.6709 13.0827 56.6709 13.7617V14.4658H51.4961C51.5098 15.3454 51.7285 16.0153 52.1523 16.4756C52.5762 16.9359 53.1732 17.166 53.9434 17.166C54.4173 17.166 54.8366 17.1227 55.2012 17.0361C55.5658 16.9495 55.944 16.8219 56.3359 16.6533V17.6514C55.9577 17.82 55.5817 17.943 55.208 18.0205C54.8389 18.098 54.4014 18.1367 53.8955 18.1367C53.1755 18.1367 52.5465 17.9909 52.0088 17.6992C51.4756 17.403 51.0609 16.9701 50.7646 16.4004C50.4684 15.8307 50.3203 15.1335 50.3203 14.3086C50.3203 13.502 50.4548 12.8047 50.7236 12.2168C50.9971 11.6243 51.3799 11.1686 51.8721 10.8496C52.3688 10.5306 52.9521 10.3711 53.6221 10.3711ZM53.6084 11.3008C53.0023 11.3008 52.5192 11.499 52.1592 11.8955C51.7992 12.292 51.585 12.8457 51.5166 13.5566H55.4814C55.4769 13.11 55.4062 12.7181 55.2695 12.3809C55.1374 12.0391 54.9346 11.7747 54.6611 11.5879C54.3877 11.3965 54.0368 11.3008 53.6084 11.3008ZM61.4834 10.3711C62.1214 10.3711 62.6683 10.5124 63.124 10.7949C63.5798 11.0775 63.9284 11.474 64.1699 11.9844C64.4115 12.4902 64.5322 13.0827 64.5322 13.7617V14.4658H59.3574C59.3711 15.3454 59.5898 16.0153 60.0137 16.4756C60.4375 16.9359 61.0345 17.166 61.8047 17.166C62.2786 17.166 62.6979 17.1227 63.0625 17.0361C63.4271 16.9495 63.8053 16.8219 64.1973 16.6533V17.6514C63.819 17.82 63.443 17.943 63.0693 18.0205C62.7002 18.098 62.2627 18.1367 61.7568 18.1367C61.0368 18.1367 60.4079 17.9909 59.8701 17.6992C59.3369 17.403 58.9222 16.9701 58.626 16.4004C58.3298 15.8307 58.1816 15.1335 58.1816 14.3086C58.1816 13.502 58.3161 12.8047 58.585 12.2168C58.8584 11.6243 59.2412 11.1686 59.7334 10.8496C60.2301 10.5306 60.8135 10.3711 61.4834 10.3711ZM61.4697 11.3008C60.8636 11.3008 60.3805 11.499 60.0205 11.8955C59.6605 12.292 59.4463 12.8457 59.3779 13.5566H63.3428C63.3382 13.11 63.2676 12.7181 63.1309 12.3809C62.9987 12.0391 62.7959 11.7747 62.5225 11.5879C62.249 11.3965 61.8981 11.3008 61.4697 11.3008ZM69.126 18.1367C68.1781 18.1367 67.4261 17.8132 66.8701 17.166C66.3187 16.5189 66.043 15.5573 66.043 14.2812C66.043 12.9915 66.3255 12.0186 66.8906 11.3623C67.4557 10.7015 68.2077 10.3711 69.1465 10.3711C69.543 10.3711 69.8893 10.4235 70.1855 10.5283C70.4818 10.6331 70.737 10.7744 70.9512 10.9521C71.1654 11.1253 71.3454 11.3236 71.4912 11.5469H71.5732C71.555 11.4056 71.5368 11.2119 71.5186 10.9658C71.5003 10.7197 71.4912 10.5192 71.4912 10.3643V7.36328H72.626V18H71.71L71.5391 16.9336H71.4912C71.3499 17.1569 71.1699 17.3597 70.9512 17.542C70.737 17.7243 70.4795 17.8701 70.1787 17.9795C69.8825 18.0843 69.5316 18.1367 69.126 18.1367ZM69.3037 17.1934C70.1058 17.1934 70.6732 16.9655 71.0059 16.5098C71.3385 16.054 71.5049 15.3773 71.5049 14.4795V14.2744C71.5049 13.3219 71.3454 12.5905 71.0264 12.0801C70.7119 11.5697 70.1377 11.3145 69.3037 11.3145C68.6064 11.3145 68.0846 11.5833 67.7383 12.1211C67.3919 12.6543 67.2188 13.3835 67.2188 14.3086C67.2188 15.2292 67.3896 15.9401 67.7314 16.4414C68.0778 16.9427 68.6019 17.1934 69.3037 17.1934ZM83.5156 15.9492C83.5156 16.4277 83.3949 16.8311 83.1533 17.1592C82.9163 17.4827 82.5745 17.7266 82.1279 17.8906C81.6859 18.0547 81.1572 18.1367 80.542 18.1367C80.0179 18.1367 79.5645 18.0957 79.1816 18.0137C78.7988 17.9316 78.4639 17.8154 78.1768 17.665V16.6191C78.4821 16.7695 78.8467 16.9062 79.2705 17.0293C79.6943 17.1523 80.1273 17.2139 80.5693 17.2139C81.2165 17.2139 81.6859 17.109 81.9775 16.8994C82.2692 16.6898 82.415 16.4049 82.415 16.0449C82.415 15.8398 82.3558 15.6598 82.2373 15.5049C82.1234 15.3454 81.9297 15.1927 81.6562 15.0469C81.3828 14.8965 81.0046 14.7324 80.5215 14.5547C80.043 14.3724 79.6283 14.1924 79.2773 14.0146C78.931 13.8324 78.6621 13.6113 78.4707 13.3516C78.2839 13.0918 78.1904 12.7546 78.1904 12.3398C78.1904 11.7064 78.4456 11.221 78.9561 10.8838C79.471 10.542 80.1455 10.3711 80.9795 10.3711C81.4307 10.3711 81.8522 10.4167 82.2441 10.5078C82.6406 10.5944 83.0098 10.7129 83.3516 10.8633L82.9688 11.7725C82.6589 11.6403 82.3285 11.5286 81.9775 11.4375C81.6266 11.3464 81.2689 11.3008 80.9043 11.3008C80.3802 11.3008 79.9769 11.3874 79.6943 11.5605C79.4163 11.7337 79.2773 11.9707 79.2773 12.2715C79.2773 12.5039 79.3411 12.6953 79.4688 12.8457C79.6009 12.9961 79.8105 13.1374 80.0977 13.2695C80.3848 13.4017 80.763 13.5566 81.2324 13.7344C81.7018 13.9076 82.1074 14.0876 82.4492 14.2744C82.791 14.4567 83.0531 14.68 83.2354 14.9443C83.4222 15.2041 83.5156 15.5391 83.5156 15.9492ZM87.7607 17.207C87.9476 17.207 88.139 17.1911 88.335 17.1592C88.5309 17.1273 88.6904 17.0885 88.8135 17.043V17.9248C88.6813 17.984 88.4967 18.0342 88.2598 18.0752C88.0273 18.1162 87.7995 18.1367 87.5762 18.1367C87.1797 18.1367 86.8197 18.0684 86.4961 17.9316C86.1725 17.7904 85.9128 17.5534 85.7168 17.2207C85.5254 16.888 85.4297 16.4277 85.4297 15.8398V11.3965H84.3633V10.8428L85.4365 10.3984L85.8877 8.77148H86.5713V10.5078H88.7656V11.3965H86.5713V15.8057C86.5713 16.2751 86.6784 16.626 86.8926 16.8584C87.1113 17.0908 87.4007 17.207 87.7607 17.207ZM96.791 14.2402C96.791 14.8555 96.7113 15.4046 96.5518 15.8877C96.3923 16.3708 96.1621 16.7786 95.8613 17.1113C95.5605 17.444 95.196 17.6992 94.7676 17.877C94.3438 18.0501 93.863 18.1367 93.3252 18.1367C92.8239 18.1367 92.3636 18.0501 91.9443 17.877C91.5296 17.6992 91.1696 17.444 90.8643 17.1113C90.5635 16.7786 90.3288 16.3708 90.1602 15.8877C89.9961 15.4046 89.9141 14.8555 89.9141 14.2402C89.9141 13.4199 90.0531 12.7227 90.3311 12.1484C90.609 11.5697 91.0055 11.1299 91.5205 10.8291C92.04 10.5238 92.6576 10.3711 93.373 10.3711C94.0566 10.3711 94.6536 10.5238 95.1641 10.8291C95.679 11.1344 96.0778 11.5765 96.3604 12.1553C96.6475 12.7295 96.791 13.4245 96.791 14.2402ZM91.0898 14.2402C91.0898 14.8418 91.1696 15.3636 91.3291 15.8057C91.4886 16.2477 91.7347 16.5895 92.0674 16.8311C92.4001 17.0726 92.8285 17.1934 93.3525 17.1934C93.8721 17.1934 94.2982 17.0726 94.6309 16.8311C94.9681 16.5895 95.2165 16.2477 95.376 15.8057C95.5355 15.3636 95.6152 14.8418 95.6152 14.2402C95.6152 13.6432 95.5355 13.1283 95.376 12.6953C95.2165 12.2578 94.9704 11.9206 94.6377 11.6836C94.305 11.4466 93.8743 11.3281 93.3457 11.3281C92.5664 11.3281 91.9945 11.5856 91.6299 12.1006C91.2699 12.6156 91.0898 13.3288 91.0898 14.2402ZM102.157 10.3711C102.308 10.3711 102.465 10.3802 102.629 10.3984C102.793 10.4121 102.939 10.4326 103.066 10.46L102.923 11.5127C102.8 11.4808 102.663 11.4557 102.513 11.4375C102.362 11.4193 102.221 11.4102 102.089 11.4102C101.788 11.4102 101.503 11.4717 101.234 11.5947C100.97 11.7132 100.738 11.8864 100.537 12.1143C100.337 12.3376 100.179 12.6087 100.065 12.9277C99.9515 13.2422 99.8945 13.5931 99.8945 13.9805V18H98.7529V10.5078H99.6963L99.8193 11.8887H99.8672C100.022 11.6107 100.209 11.3577 100.428 11.1299C100.646 10.8975 100.899 10.7129 101.187 10.5762C101.478 10.4395 101.802 10.3711 102.157 10.3711ZM107.284 10.3848C108.177 10.3848 108.84 10.5853 109.273 10.9863C109.706 11.3874 109.923 12.0277 109.923 12.9072V18H109.096L108.877 16.8926H108.822C108.613 17.166 108.394 17.3962 108.166 17.583C107.938 17.7653 107.674 17.9043 107.373 18C107.077 18.0911 106.712 18.1367 106.279 18.1367C105.824 18.1367 105.418 18.057 105.062 17.8975C104.712 17.738 104.434 17.4964 104.229 17.1729C104.028 16.8493 103.928 16.4391 103.928 15.9424C103.928 15.195 104.224 14.6208 104.816 14.2197C105.409 13.8187 106.311 13.5999 107.523 13.5635L108.815 13.5088V13.0508C108.815 12.4036 108.676 11.9502 108.398 11.6904C108.12 11.4307 107.729 11.3008 107.223 11.3008C106.831 11.3008 106.457 11.3577 106.102 11.4717C105.746 11.5856 105.409 11.7201 105.09 11.875L104.741 11.0137C105.078 10.8405 105.466 10.6924 105.903 10.5693C106.341 10.4463 106.801 10.3848 107.284 10.3848ZM108.802 14.3086L107.66 14.3564C106.726 14.3929 106.067 14.5456 105.685 14.8145C105.302 15.0833 105.11 15.4639 105.11 15.9561C105.11 16.3844 105.24 16.7012 105.5 16.9062C105.76 17.1113 106.104 17.2139 106.532 17.2139C107.198 17.2139 107.742 17.0293 108.166 16.6602C108.59 16.291 108.802 15.7373 108.802 14.999V14.3086ZM114.353 21.3633C113.368 21.3633 112.609 21.1787 112.076 20.8096C111.543 20.445 111.276 19.9323 111.276 19.2715C111.276 18.8021 111.424 18.401 111.721 18.0684C112.021 17.7357 112.436 17.5146 112.965 17.4053C112.769 17.3141 112.6 17.1774 112.459 16.9951C112.322 16.8128 112.254 16.6032 112.254 16.3662C112.254 16.0928 112.329 15.8535 112.479 15.6484C112.634 15.4388 112.869 15.2383 113.184 15.0469C112.792 14.8874 112.473 14.6185 112.227 14.2402C111.985 13.8574 111.864 13.4131 111.864 12.9072C111.864 12.3695 111.976 11.9115 112.199 11.5332C112.423 11.1504 112.746 10.8587 113.17 10.6582C113.594 10.4577 114.106 10.3574 114.708 10.3574C114.84 10.3574 114.972 10.3643 115.104 10.3779C115.241 10.387 115.371 10.403 115.494 10.4258C115.617 10.444 115.724 10.4668 115.815 10.4941H118.386V11.2256L117.005 11.3965C117.142 11.5742 117.256 11.7884 117.347 12.0391C117.438 12.2897 117.483 12.5677 117.483 12.873C117.483 13.6204 117.23 14.2152 116.725 14.6572C116.219 15.0947 115.524 15.3135 114.64 15.3135C114.43 15.3135 114.216 15.2952 113.997 15.2588C113.774 15.3818 113.603 15.5186 113.484 15.6689C113.37 15.8193 113.313 15.9925 113.313 16.1885C113.313 16.3343 113.357 16.4505 113.443 16.5371C113.535 16.6237 113.664 16.6875 113.833 16.7285C114.002 16.765 114.204 16.7832 114.441 16.7832H115.761C116.576 16.7832 117.201 16.9541 117.634 17.2959C118.071 17.6377 118.29 18.1367 118.29 18.793C118.29 19.6224 117.953 20.2581 117.278 20.7002C116.604 21.1423 115.629 21.3633 114.353 21.3633ZM114.387 20.4746C115.007 20.4746 115.519 20.4108 115.925 20.2832C116.335 20.1602 116.64 19.9801 116.841 19.7432C117.046 19.5107 117.148 19.2327 117.148 18.9092C117.148 18.6084 117.08 18.3805 116.943 18.2256C116.807 18.0752 116.606 17.9749 116.342 17.9248C116.077 17.8701 115.754 17.8428 115.371 17.8428H114.072C113.735 17.8428 113.441 17.8952 113.19 18C112.94 18.1048 112.746 18.2598 112.609 18.4648C112.477 18.6699 112.411 18.9251 112.411 19.2305C112.411 19.6361 112.582 19.9437 112.924 20.1533C113.266 20.3675 113.753 20.4746 114.387 20.4746ZM114.681 14.4863C115.223 14.4863 115.631 14.3496 115.904 14.0762C116.178 13.8027 116.314 13.404 116.314 12.8799C116.314 12.3193 116.175 11.9001 115.897 11.6221C115.619 11.3395 115.209 11.1982 114.667 11.1982C114.147 11.1982 113.746 11.3441 113.464 11.6357C113.186 11.9229 113.047 12.3444 113.047 12.9004C113.047 13.4108 113.188 13.8027 113.471 14.0762C113.753 14.3496 114.157 14.4863 114.681 14.4863ZM122.747 10.3711C123.385 10.3711 123.932 10.5124 124.388 10.7949C124.843 11.0775 125.192 11.474 125.434 11.9844C125.675 12.4902 125.796 13.0827 125.796 13.7617V14.4658H120.621C120.635 15.3454 120.854 16.0153 121.277 16.4756C121.701 16.9359 122.298 17.166 123.068 17.166C123.542 17.166 123.962 17.1227 124.326 17.0361C124.691 16.9495 125.069 16.8219 125.461 16.6533V17.6514C125.083 17.82 124.707 17.943 124.333 18.0205C123.964 18.098 123.526 18.1367 123.021 18.1367C122.3 18.1367 121.672 17.9909 121.134 17.6992C120.601 17.403 120.186 16.9701 119.89 16.4004C119.593 15.8307 119.445 15.1335 119.445 14.3086C119.445 13.502 119.58 12.8047 119.849 12.2168C120.122 11.6243 120.505 11.1686 120.997 10.8496C121.494 10.5306 122.077 10.3711 122.747 10.3711ZM122.733 11.3008C122.127 11.3008 121.644 11.499 121.284 11.8955C120.924 12.292 120.71 12.8457 120.642 13.5566H124.606C124.602 13.11 124.531 12.7181 124.395 12.3809C124.262 12.0391 124.06 11.7747 123.786 11.5879C123.513 11.3965 123.162 11.3008 122.733 11.3008ZM136.207 15.9492C136.207 16.4277 136.086 16.8311 135.845 17.1592C135.608 17.4827 135.266 17.7266 134.819 17.8906C134.377 18.0547 133.849 18.1367 133.233 18.1367C132.709 18.1367 132.256 18.0957 131.873 18.0137C131.49 17.9316 131.155 17.8154 130.868 17.665V16.6191C131.174 16.7695 131.538 16.9062 131.962 17.0293C132.386 17.1523 132.819 17.2139 133.261 17.2139C133.908 17.2139 134.377 17.109 134.669 16.8994C134.961 16.6898 135.106 16.4049 135.106 16.0449C135.106 15.8398 135.047 15.6598 134.929 15.5049C134.815 15.3454 134.621 15.1927 134.348 15.0469C134.074 14.8965 133.696 14.7324 133.213 14.5547C132.734 14.3724 132.32 14.1924 131.969 14.0146C131.622 13.8324 131.354 13.6113 131.162 13.3516C130.975 13.0918 130.882 12.7546 130.882 12.3398C130.882 11.7064 131.137 11.221 131.647 10.8838C132.162 10.542 132.837 10.3711 133.671 10.3711C134.122 10.3711 134.544 10.4167 134.936 10.5078C135.332 10.5944 135.701 10.7129 136.043 10.8633L135.66 11.7725C135.35 11.6403 135.02 11.5286 134.669 11.4375C134.318 11.3464 133.96 11.3008 133.596 11.3008C133.072 11.3008 132.668 11.3874 132.386 11.5605C132.108 11.7337 131.969 11.9707 131.969 12.2715C131.969 12.5039 132.033 12.6953 132.16 12.8457C132.292 12.9961 132.502 13.1374 132.789 13.2695C133.076 13.4017 133.454 13.5566 133.924 13.7344C134.393 13.9076 134.799 14.0876 135.141 14.2744C135.482 14.4567 135.744 14.68 135.927 14.9443C136.114 15.2041 136.207 15.5391 136.207 15.9492ZM140.917 10.3711C141.555 10.3711 142.102 10.5124 142.558 10.7949C143.013 11.0775 143.362 11.474 143.604 11.9844C143.845 12.4902 143.966 13.0827 143.966 13.7617V14.4658H138.791C138.805 15.3454 139.023 16.0153 139.447 16.4756C139.871 16.9359 140.468 17.166 141.238 17.166C141.712 17.166 142.132 17.1227 142.496 17.0361C142.861 16.9495 143.239 16.8219 143.631 16.6533V17.6514C143.253 17.82 142.877 17.943 142.503 18.0205C142.134 18.098 141.696 18.1367 141.19 18.1367C140.47 18.1367 139.841 17.9909 139.304 17.6992C138.771 17.403 138.356 16.9701 138.06 16.4004C137.763 15.8307 137.615 15.1335 137.615 14.3086C137.615 13.502 137.75 12.8047 138.019 12.2168C138.292 11.6243 138.675 11.1686 139.167 10.8496C139.664 10.5306 140.247 10.3711 140.917 10.3711ZM140.903 11.3008C140.297 11.3008 139.814 11.499 139.454 11.8955C139.094 12.292 138.88 12.8457 138.812 13.5566H142.776C142.772 13.11 142.701 12.7181 142.564 12.3809C142.432 12.0391 142.229 11.7747 141.956 11.5879C141.683 11.3965 141.332 11.3008 140.903 11.3008ZM149.298 10.3711C149.448 10.3711 149.605 10.3802 149.77 10.3984C149.934 10.4121 150.079 10.4326 150.207 10.46L150.063 11.5127C149.94 11.4808 149.804 11.4557 149.653 11.4375C149.503 11.4193 149.362 11.4102 149.229 11.4102C148.929 11.4102 148.644 11.4717 148.375 11.5947C148.111 11.7132 147.878 11.8864 147.678 12.1143C147.477 12.3376 147.32 12.6087 147.206 12.9277C147.092 13.2422 147.035 13.5931 147.035 13.9805V18H145.894V10.5078H146.837L146.96 11.8887H147.008C147.163 11.6107 147.35 11.3577 147.568 11.1299C147.787 10.8975 148.04 10.7129 148.327 10.5762C148.619 10.4395 148.942 10.3711 149.298 10.3711ZM153.27 18L150.426 10.5078H151.643L153.29 15.04C153.404 15.3499 153.52 15.6917 153.639 16.0654C153.757 16.4391 153.839 16.7399 153.885 16.9678H153.933C153.987 16.7399 154.078 16.4391 154.206 16.0654C154.334 15.6872 154.45 15.3454 154.555 15.04L156.202 10.5078H157.419L154.568 18H153.27ZM159.757 10.5078V18H158.622V10.5078H159.757ZM159.203 7.70508C159.39 7.70508 159.549 7.7666 159.682 7.88965C159.818 8.00814 159.887 8.19499 159.887 8.4502C159.887 8.70085 159.818 8.8877 159.682 9.01074C159.549 9.13379 159.39 9.19531 159.203 9.19531C159.007 9.19531 158.843 9.13379 158.711 9.01074C158.583 8.8877 158.52 8.70085 158.52 8.4502C158.52 8.19499 158.583 8.00814 158.711 7.88965C158.843 7.7666 159.007 7.70508 159.203 7.70508ZM165.164 18.1367C164.49 18.1367 163.895 17.9977 163.38 17.7197C162.865 17.4417 162.464 17.0179 162.177 16.4482C161.89 15.8786 161.746 15.1608 161.746 14.2949C161.746 13.388 161.896 12.6475 162.197 12.0732C162.503 11.4945 162.922 11.0661 163.455 10.7881C163.988 10.5101 164.594 10.3711 165.273 10.3711C165.647 10.3711 166.007 10.4098 166.354 10.4873C166.704 10.5602 166.992 10.6536 167.215 10.7676L166.873 11.7178C166.645 11.6266 166.381 11.5446 166.08 11.4717C165.784 11.3988 165.506 11.3623 165.246 11.3623C164.727 11.3623 164.294 11.474 163.947 11.6973C163.605 11.9206 163.348 12.2487 163.175 12.6816C163.006 13.1146 162.922 13.6478 162.922 14.2812C162.922 14.8874 163.004 15.4046 163.168 15.833C163.337 16.2614 163.585 16.5895 163.913 16.8174C164.246 17.0407 164.66 17.1523 165.157 17.1523C165.554 17.1523 165.911 17.1113 166.23 17.0293C166.549 16.9427 166.839 16.8424 167.099 16.7285V17.7402C166.848 17.8678 166.568 17.9658 166.258 18.0342C165.952 18.1025 165.588 18.1367 165.164 18.1367ZM171.761 10.3711C172.399 10.3711 172.946 10.5124 173.401 10.7949C173.857 11.0775 174.206 11.474 174.447 11.9844C174.689 12.4902 174.81 13.0827 174.81 13.7617V14.4658H169.635C169.648 15.3454 169.867 16.0153 170.291 16.4756C170.715 16.9359 171.312 17.166 172.082 17.166C172.556 17.166 172.975 17.1227 173.34 17.0361C173.704 16.9495 174.083 16.8219 174.475 16.6533V17.6514C174.096 17.82 173.72 17.943 173.347 18.0205C172.978 18.098 172.54 18.1367 172.034 18.1367C171.314 18.1367 170.685 17.9909 170.147 17.6992C169.614 17.403 169.2 16.9701 168.903 16.4004C168.607 15.8307 168.459 15.1335 168.459 14.3086C168.459 13.502 168.593 12.8047 168.862 12.2168C169.136 11.6243 169.519 11.1686 170.011 10.8496C170.507 10.5306 171.091 10.3711 171.761 10.3711ZM171.747 11.3008C171.141 11.3008 170.658 11.499 170.298 11.8955C169.938 12.292 169.724 12.8457 169.655 13.5566H173.62C173.616 13.11 173.545 12.7181 173.408 12.3809C173.276 12.0391 173.073 11.7747 172.8 11.5879C172.526 11.3965 172.175 11.3008 171.747 11.3008ZM181.584 15.9492C181.584 16.4277 181.463 16.8311 181.222 17.1592C180.985 17.4827 180.643 17.7266 180.196 17.8906C179.754 18.0547 179.226 18.1367 178.61 18.1367C178.086 18.1367 177.633 18.0957 177.25 18.0137C176.867 17.9316 176.532 17.8154 176.245 17.665V16.6191C176.55 16.7695 176.915 16.9062 177.339 17.0293C177.763 17.1523 178.196 17.2139 178.638 17.2139C179.285 17.2139 179.754 17.109 180.046 16.8994C180.338 16.6898 180.483 16.4049 180.483 16.0449C180.483 15.8398 180.424 15.6598 180.306 15.5049C180.192 15.3454 179.998 15.1927 179.725 15.0469C179.451 14.8965 179.073 14.7324 178.59 14.5547C178.111 14.3724 177.697 14.1924 177.346 14.0146C176.999 13.8324 176.73 13.6113 176.539 13.3516C176.352 13.0918 176.259 12.7546 176.259 12.3398C176.259 11.7064 176.514 11.221 177.024 10.8838C177.539 10.542 178.214 10.3711 179.048 10.3711C179.499 10.3711 179.921 10.4167 180.312 10.5078C180.709 10.5944 181.078 10.7129 181.42 10.8633L181.037 11.7725C180.727 11.6403 180.397 11.5286 180.046 11.4375C179.695 11.3464 179.337 11.3008 178.973 11.3008C178.449 11.3008 178.045 11.3874 177.763 11.5605C177.485 11.7337 177.346 11.9707 177.346 12.2715C177.346 12.5039 177.41 12.6953 177.537 12.8457C177.669 12.9961 177.879 13.1374 178.166 13.2695C178.453 13.4017 178.831 13.5566 179.301 13.7344C179.77 13.9076 180.176 14.0876 180.518 14.2744C180.859 14.4567 181.121 14.68 181.304 14.9443C181.491 15.2041 181.584 15.5391 181.584 15.9492Z" fill="#21222D"/>
</svg>
